<mxfile host="app.diagrams.net" modified="2021-08-16T03:23:14.900Z" agent="5.0 (Macintosh; Intel Mac OS X 10_15_7) AppleWebKit/537.36 (KHTML, like Gecko) Chrome/92.0.4515.131 Safari/537.36" etag="Ykj17SVqxyLFbSrRiAmr" version="14.9.6" type="github">
  <diagram id="cExTaso-KNT8QKJGvqpp" name="Page-1">
    <mxGraphModel dx="1645" dy="646" grid="1" gridSize="10" guides="1" tooltips="1" connect="1" arrows="1" fold="1" page="1" pageScale="1" pageWidth="827" pageHeight="1169" math="0" shadow="0">
      <root>
        <mxCell id="0" />
        <mxCell id="1" parent="0" />
        <mxCell id="x1zw4nd6OEulIW4w1ceg-1" value="" style="shape=image;verticalLabelPosition=bottom;labelBackgroundColor=#ffffff;verticalAlign=top;aspect=fixed;imageAspect=0;image=https://i.loli.net/2021/08/13/6gSBdHnD7qwvKIF.png;" parent="1" vertex="1">
          <mxGeometry x="80" y="170" width="730" height="292" as="geometry" />
        </mxCell>
        <mxCell id="x1zw4nd6OEulIW4w1ceg-2" value="001&lt;br&gt;Lily&lt;br&gt;20" style="rounded=0;whiteSpace=wrap;html=1;" parent="1" vertex="1">
          <mxGeometry x="120" y="430" width="60" height="46" as="geometry" />
        </mxCell>
        <mxCell id="x1zw4nd6OEulIW4w1ceg-3" value="Jack&lt;br&gt;21" style="rounded=0;whiteSpace=wrap;html=1;" parent="1" vertex="1">
          <mxGeometry x="199" y="430" width="60" height="46" as="geometry" />
        </mxCell>
        <mxCell id="x1zw4nd6OEulIW4w1ceg-4" value="Lucy&lt;br&gt;23" style="rounded=0;whiteSpace=wrap;html=1;" parent="1" vertex="1">
          <mxGeometry x="276" y="430" width="60" height="46" as="geometry" />
        </mxCell>
        <mxCell id="x1zw4nd6OEulIW4w1ceg-5" value="James&lt;br&gt;24" style="rounded=0;whiteSpace=wrap;html=1;" parent="1" vertex="1">
          <mxGeometry x="354" y="430" width="60" height="46" as="geometry" />
        </mxCell>
        <mxCell id="x1zw4nd6OEulIW4w1ceg-6" value="Jerry&lt;br&gt;25" style="rounded=0;whiteSpace=wrap;html=1;" parent="1" vertex="1">
          <mxGeometry x="432.5" y="430" width="60" height="46" as="geometry" />
        </mxCell>
        <mxCell id="x1zw4nd6OEulIW4w1ceg-7" value="29" style="rounded=0;whiteSpace=wrap;html=1;" parent="1" vertex="1">
          <mxGeometry x="432.5" y="384" width="60" height="46" as="geometry" />
        </mxCell>
        <mxCell id="x1zw4nd6OEulIW4w1ceg-8" value="lucy" style="rounded=0;whiteSpace=wrap;html=1;" parent="1" vertex="1">
          <mxGeometry x="1110" y="404" width="60" height="46" as="geometry" />
        </mxCell>
        <mxCell id="x1zw4nd6OEulIW4w1ceg-9" value="null" style="rounded=0;whiteSpace=wrap;html=1;" parent="1" vertex="1">
          <mxGeometry x="800" y="404" width="60" height="46" as="geometry" />
        </mxCell>
        <mxCell id="x1zw4nd6OEulIW4w1ceg-10" value="jackson" style="rounded=0;whiteSpace=wrap;html=1;" parent="1" vertex="1">
          <mxGeometry x="900" y="404" width="60" height="46" as="geometry" />
        </mxCell>
        <mxCell id="x1zw4nd6OEulIW4w1ceg-11" value="40" style="rounded=0;whiteSpace=wrap;html=1;" parent="1" vertex="1">
          <mxGeometry x="800" y="450" width="60" height="46" as="geometry" />
        </mxCell>
        <mxCell id="x1zw4nd6OEulIW4w1ceg-12" value="5" style="rounded=0;whiteSpace=wrap;html=1;" parent="1" vertex="1">
          <mxGeometry x="900" y="450" width="60" height="46" as="geometry" />
        </mxCell>
        <mxCell id="x1zw4nd6OEulIW4w1ceg-13" value="lily" style="rounded=0;whiteSpace=wrap;html=1;" parent="1" vertex="1">
          <mxGeometry x="990" y="230" width="60" height="36" as="geometry" />
        </mxCell>
        <mxCell id="x1zw4nd6OEulIW4w1ceg-14" value="jack" style="rounded=0;whiteSpace=wrap;html=1;" parent="1" vertex="1">
          <mxGeometry x="1000" y="404" width="60" height="46" as="geometry" />
        </mxCell>
        <mxCell id="x1zw4nd6OEulIW4w1ceg-15" value="8" style="rounded=0;whiteSpace=wrap;html=1;" parent="1" vertex="1">
          <mxGeometry x="1000" y="450" width="60" height="46" as="geometry" />
        </mxCell>
        <mxCell id="x1zw4nd6OEulIW4w1ceg-16" value="40" style="rounded=0;whiteSpace=wrap;html=1;" parent="1" vertex="1">
          <mxGeometry x="1110" y="450" width="60" height="50" as="geometry" />
        </mxCell>
        <mxCell id="x1zw4nd6OEulIW4w1ceg-17" value="" style="endArrow=none;html=1;exitX=0.5;exitY=0;exitDx=0;exitDy=0;" parent="1" source="x1zw4nd6OEulIW4w1ceg-14" edge="1">
          <mxGeometry width="50" height="50" relative="1" as="geometry">
            <mxPoint x="930" y="350" as="sourcePoint" />
            <mxPoint x="1020" y="270" as="targetPoint" />
          </mxGeometry>
        </mxCell>
        <mxCell id="x1zw4nd6OEulIW4w1ceg-18" value="" style="endArrow=none;html=1;entryX=0.5;entryY=0;entryDx=0;entryDy=0;" parent="1" target="x1zw4nd6OEulIW4w1ceg-8" edge="1">
          <mxGeometry width="50" height="50" relative="1" as="geometry">
            <mxPoint x="1020" y="270" as="sourcePoint" />
            <mxPoint x="1070" y="310" as="targetPoint" />
          </mxGeometry>
        </mxCell>
        <mxCell id="x1zw4nd6OEulIW4w1ceg-19" value="" style="endArrow=none;html=1;exitX=0.5;exitY=0;exitDx=0;exitDy=0;" parent="1" source="x1zw4nd6OEulIW4w1ceg-10" edge="1">
          <mxGeometry width="50" height="50" relative="1" as="geometry">
            <mxPoint x="1040" y="414" as="sourcePoint" />
            <mxPoint x="1020" y="270" as="targetPoint" />
          </mxGeometry>
        </mxCell>
        <mxCell id="x1zw4nd6OEulIW4w1ceg-20" value="" style="shape=flexArrow;endArrow=classic;html=1;" parent="1" edge="1">
          <mxGeometry width="50" height="50" relative="1" as="geometry">
            <mxPoint x="830" y="440" as="sourcePoint" />
            <mxPoint x="900" y="440" as="targetPoint" />
          </mxGeometry>
        </mxCell>
        <mxCell id="x1zw4nd6OEulIW4w1ceg-21" value="" style="endArrow=classic;html=1;exitX=0.5;exitY=1;exitDx=0;exitDy=0;entryX=1;entryY=0.5;entryDx=0;entryDy=0;" parent="1" source="x1zw4nd6OEulIW4w1ceg-15" target="x1zw4nd6OEulIW4w1ceg-7" edge="1">
          <mxGeometry width="50" height="50" relative="1" as="geometry">
            <mxPoint x="930" y="570" as="sourcePoint" />
            <mxPoint x="980" y="520" as="targetPoint" />
            <Array as="points">
              <mxPoint x="1030" y="550" />
              <mxPoint x="540" y="550" />
              <mxPoint x="540" y="407" />
            </Array>
          </mxGeometry>
        </mxCell>
        <mxCell id="x1zw4nd6OEulIW4w1ceg-22" value="" style="shape=table;html=1;whiteSpace=wrap;startSize=0;container=1;collapsible=0;childLayout=tableLayout;" parent="1" vertex="1">
          <mxGeometry x="1240" y="336" width="340" height="320" as="geometry" />
        </mxCell>
        <mxCell id="x1zw4nd6OEulIW4w1ceg-23" value="" style="shape=partialRectangle;html=1;whiteSpace=wrap;collapsible=0;dropTarget=0;pointerEvents=0;fillColor=none;top=0;left=0;bottom=0;right=0;points=[[0,0.5],[1,0.5]];portConstraint=eastwest;" parent="x1zw4nd6OEulIW4w1ceg-22" vertex="1">
          <mxGeometry width="340" height="40" as="geometry" />
        </mxCell>
        <mxCell id="x1zw4nd6OEulIW4w1ceg-24" value="id" style="shape=partialRectangle;html=1;whiteSpace=wrap;connectable=0;fillColor=none;top=0;left=0;bottom=0;right=0;overflow=hidden;pointerEvents=1;" parent="x1zw4nd6OEulIW4w1ceg-23" vertex="1">
          <mxGeometry width="113" height="40" as="geometry" />
        </mxCell>
        <mxCell id="x1zw4nd6OEulIW4w1ceg-25" value="name" style="shape=partialRectangle;html=1;whiteSpace=wrap;connectable=0;fillColor=none;top=0;left=0;bottom=0;right=0;overflow=hidden;pointerEvents=1;" parent="x1zw4nd6OEulIW4w1ceg-23" vertex="1">
          <mxGeometry x="113" width="114" height="40" as="geometry" />
        </mxCell>
        <mxCell id="x1zw4nd6OEulIW4w1ceg-26" value="age" style="shape=partialRectangle;html=1;whiteSpace=wrap;connectable=0;fillColor=none;top=0;left=0;bottom=0;right=0;overflow=hidden;pointerEvents=1;" parent="x1zw4nd6OEulIW4w1ceg-23" vertex="1">
          <mxGeometry x="227" width="113" height="40" as="geometry" />
        </mxCell>
        <mxCell id="x1zw4nd6OEulIW4w1ceg-27" value="" style="shape=partialRectangle;html=1;whiteSpace=wrap;collapsible=0;dropTarget=0;pointerEvents=0;fillColor=none;top=0;left=0;bottom=0;right=0;points=[[0,0.5],[1,0.5]];portConstraint=eastwest;" parent="x1zw4nd6OEulIW4w1ceg-22" vertex="1">
          <mxGeometry y="40" width="340" height="40" as="geometry" />
        </mxCell>
        <mxCell id="x1zw4nd6OEulIW4w1ceg-28" value="1" style="shape=partialRectangle;html=1;whiteSpace=wrap;connectable=0;fillColor=none;top=0;left=0;bottom=0;right=0;overflow=hidden;pointerEvents=1;" parent="x1zw4nd6OEulIW4w1ceg-27" vertex="1">
          <mxGeometry width="113" height="40" as="geometry" />
        </mxCell>
        <mxCell id="x1zw4nd6OEulIW4w1ceg-29" value="Lily" style="shape=partialRectangle;html=1;whiteSpace=wrap;connectable=0;fillColor=none;top=0;left=0;bottom=0;right=0;overflow=hidden;pointerEvents=1;" parent="x1zw4nd6OEulIW4w1ceg-27" vertex="1">
          <mxGeometry x="113" width="114" height="40" as="geometry" />
        </mxCell>
        <mxCell id="x1zw4nd6OEulIW4w1ceg-30" value="20" style="shape=partialRectangle;html=1;whiteSpace=wrap;connectable=0;fillColor=none;top=0;left=0;bottom=0;right=0;overflow=hidden;pointerEvents=1;" parent="x1zw4nd6OEulIW4w1ceg-27" vertex="1">
          <mxGeometry x="227" width="113" height="40" as="geometry" />
        </mxCell>
        <mxCell id="x1zw4nd6OEulIW4w1ceg-31" value="" style="shape=partialRectangle;html=1;whiteSpace=wrap;collapsible=0;dropTarget=0;pointerEvents=0;fillColor=none;top=0;left=0;bottom=0;right=0;points=[[0,0.5],[1,0.5]];portConstraint=eastwest;" parent="x1zw4nd6OEulIW4w1ceg-22" vertex="1">
          <mxGeometry y="80" width="340" height="40" as="geometry" />
        </mxCell>
        <mxCell id="x1zw4nd6OEulIW4w1ceg-32" value="5" style="shape=partialRectangle;html=1;whiteSpace=wrap;connectable=0;fillColor=none;top=0;left=0;bottom=0;right=0;overflow=hidden;pointerEvents=1;" parent="x1zw4nd6OEulIW4w1ceg-31" vertex="1">
          <mxGeometry width="113" height="40" as="geometry" />
        </mxCell>
        <mxCell id="x1zw4nd6OEulIW4w1ceg-33" value="Jackson" style="shape=partialRectangle;html=1;whiteSpace=wrap;connectable=0;fillColor=none;top=0;left=0;bottom=0;right=0;overflow=hidden;pointerEvents=1;" parent="x1zw4nd6OEulIW4w1ceg-31" vertex="1">
          <mxGeometry x="113" width="114" height="40" as="geometry" />
        </mxCell>
        <mxCell id="x1zw4nd6OEulIW4w1ceg-34" value="19" style="shape=partialRectangle;html=1;whiteSpace=wrap;connectable=0;fillColor=none;top=0;left=0;bottom=0;right=0;overflow=hidden;pointerEvents=1;" parent="x1zw4nd6OEulIW4w1ceg-31" vertex="1">
          <mxGeometry x="227" width="113" height="40" as="geometry" />
        </mxCell>
        <mxCell id="x1zw4nd6OEulIW4w1ceg-35" value="" style="shape=partialRectangle;html=1;whiteSpace=wrap;collapsible=0;dropTarget=0;pointerEvents=0;fillColor=none;top=0;left=0;bottom=0;right=0;points=[[0,0.5],[1,0.5]];portConstraint=eastwest;" parent="x1zw4nd6OEulIW4w1ceg-22" vertex="1">
          <mxGeometry y="120" width="340" height="40" as="geometry" />
        </mxCell>
        <mxCell id="x1zw4nd6OEulIW4w1ceg-36" value="8" style="shape=partialRectangle;html=1;whiteSpace=wrap;connectable=0;fillColor=none;top=0;left=0;bottom=0;right=0;overflow=hidden;pointerEvents=1;" parent="x1zw4nd6OEulIW4w1ceg-35" vertex="1">
          <mxGeometry width="113" height="40" as="geometry" />
        </mxCell>
        <mxCell id="x1zw4nd6OEulIW4w1ceg-37" value="Jack" style="shape=partialRectangle;html=1;whiteSpace=wrap;connectable=0;fillColor=none;top=0;left=0;bottom=0;right=0;overflow=hidden;pointerEvents=1;" parent="x1zw4nd6OEulIW4w1ceg-35" vertex="1">
          <mxGeometry x="113" width="114" height="40" as="geometry" />
        </mxCell>
        <mxCell id="x1zw4nd6OEulIW4w1ceg-38" value="20" style="shape=partialRectangle;html=1;whiteSpace=wrap;connectable=0;fillColor=none;top=0;left=0;bottom=0;right=0;overflow=hidden;pointerEvents=1;" parent="x1zw4nd6OEulIW4w1ceg-35" vertex="1">
          <mxGeometry x="227" width="113" height="40" as="geometry" />
        </mxCell>
        <mxCell id="x1zw4nd6OEulIW4w1ceg-39" value="" style="shape=partialRectangle;html=1;whiteSpace=wrap;collapsible=0;dropTarget=0;pointerEvents=0;fillColor=none;top=0;left=0;bottom=0;right=0;points=[[0,0.5],[1,0.5]];portConstraint=eastwest;" parent="x1zw4nd6OEulIW4w1ceg-22" vertex="1">
          <mxGeometry y="160" width="340" height="40" as="geometry" />
        </mxCell>
        <mxCell id="x1zw4nd6OEulIW4w1ceg-40" value="20" style="shape=partialRectangle;html=1;whiteSpace=wrap;connectable=0;fillColor=none;top=0;left=0;bottom=0;right=0;overflow=hidden;pointerEvents=1;" parent="x1zw4nd6OEulIW4w1ceg-39" vertex="1">
          <mxGeometry width="113" height="40" as="geometry" />
        </mxCell>
        <mxCell id="x1zw4nd6OEulIW4w1ceg-41" value="Billy" style="shape=partialRectangle;html=1;whiteSpace=wrap;connectable=0;fillColor=none;top=0;left=0;bottom=0;right=0;overflow=hidden;pointerEvents=1;" parent="x1zw4nd6OEulIW4w1ceg-39" vertex="1">
          <mxGeometry x="113" width="114" height="40" as="geometry" />
        </mxCell>
        <mxCell id="x1zw4nd6OEulIW4w1ceg-42" value="21" style="shape=partialRectangle;html=1;whiteSpace=wrap;connectable=0;fillColor=none;top=0;left=0;bottom=0;right=0;overflow=hidden;pointerEvents=1;" parent="x1zw4nd6OEulIW4w1ceg-39" vertex="1">
          <mxGeometry x="227" width="113" height="40" as="geometry" />
        </mxCell>
        <mxCell id="x1zw4nd6OEulIW4w1ceg-43" value="" style="shape=partialRectangle;html=1;whiteSpace=wrap;collapsible=0;dropTarget=0;pointerEvents=0;fillColor=none;top=0;left=0;bottom=0;right=0;points=[[0,0.5],[1,0.5]];portConstraint=eastwest;" parent="x1zw4nd6OEulIW4w1ceg-22" vertex="1">
          <mxGeometry y="200" width="340" height="40" as="geometry" />
        </mxCell>
        <mxCell id="x1zw4nd6OEulIW4w1ceg-44" value="22" style="shape=partialRectangle;html=1;whiteSpace=wrap;connectable=0;fillColor=none;top=0;left=0;bottom=0;right=0;overflow=hidden;pointerEvents=1;" parent="x1zw4nd6OEulIW4w1ceg-43" vertex="1">
          <mxGeometry width="113" height="40" as="geometry" />
        </mxCell>
        <mxCell id="x1zw4nd6OEulIW4w1ceg-45" value="Sunny" style="shape=partialRectangle;html=1;whiteSpace=wrap;connectable=0;fillColor=none;top=0;left=0;bottom=0;right=0;overflow=hidden;pointerEvents=1;" parent="x1zw4nd6OEulIW4w1ceg-43" vertex="1">
          <mxGeometry x="113" width="114" height="40" as="geometry" />
        </mxCell>
        <mxCell id="x1zw4nd6OEulIW4w1ceg-46" value="30" style="shape=partialRectangle;html=1;whiteSpace=wrap;connectable=0;fillColor=none;top=0;left=0;bottom=0;right=0;overflow=hidden;pointerEvents=1;" parent="x1zw4nd6OEulIW4w1ceg-43" vertex="1">
          <mxGeometry x="227" width="113" height="40" as="geometry" />
        </mxCell>
        <mxCell id="x1zw4nd6OEulIW4w1ceg-47" value="" style="shape=partialRectangle;html=1;whiteSpace=wrap;collapsible=0;dropTarget=0;pointerEvents=0;fillColor=none;top=0;left=0;bottom=0;right=0;points=[[0,0.5],[1,0.5]];portConstraint=eastwest;" parent="x1zw4nd6OEulIW4w1ceg-22" vertex="1">
          <mxGeometry y="240" width="340" height="40" as="geometry" />
        </mxCell>
        <mxCell id="x1zw4nd6OEulIW4w1ceg-48" value="29" style="shape=partialRectangle;html=1;whiteSpace=wrap;connectable=0;fillColor=none;top=0;left=0;bottom=0;right=0;overflow=hidden;pointerEvents=1;" parent="x1zw4nd6OEulIW4w1ceg-47" vertex="1">
          <mxGeometry width="113" height="40" as="geometry" />
        </mxCell>
        <mxCell id="x1zw4nd6OEulIW4w1ceg-49" value="Jerry" style="shape=partialRectangle;html=1;whiteSpace=wrap;connectable=0;fillColor=none;top=0;left=0;bottom=0;right=0;overflow=hidden;pointerEvents=1;" parent="x1zw4nd6OEulIW4w1ceg-47" vertex="1">
          <mxGeometry x="113" width="114" height="40" as="geometry" />
        </mxCell>
        <mxCell id="x1zw4nd6OEulIW4w1ceg-50" value="22" style="shape=partialRectangle;html=1;whiteSpace=wrap;connectable=0;fillColor=none;top=0;left=0;bottom=0;right=0;overflow=hidden;pointerEvents=1;" parent="x1zw4nd6OEulIW4w1ceg-47" vertex="1">
          <mxGeometry x="227" width="113" height="40" as="geometry" />
        </mxCell>
        <mxCell id="x1zw4nd6OEulIW4w1ceg-51" value="" style="shape=partialRectangle;html=1;whiteSpace=wrap;collapsible=0;dropTarget=0;pointerEvents=0;fillColor=none;top=0;left=0;bottom=0;right=0;points=[[0,0.5],[1,0.5]];portConstraint=eastwest;" parent="x1zw4nd6OEulIW4w1ceg-22" vertex="1">
          <mxGeometry y="280" width="340" height="40" as="geometry" />
        </mxCell>
        <mxCell id="x1zw4nd6OEulIW4w1ceg-52" value="40" style="shape=partialRectangle;html=1;whiteSpace=wrap;connectable=0;fillColor=none;top=0;left=0;bottom=0;right=0;overflow=hidden;pointerEvents=1;" parent="x1zw4nd6OEulIW4w1ceg-51" vertex="1">
          <mxGeometry width="113" height="40" as="geometry" />
        </mxCell>
        <mxCell id="x1zw4nd6OEulIW4w1ceg-53" value="null" style="shape=partialRectangle;html=1;whiteSpace=wrap;connectable=0;fillColor=none;top=0;left=0;bottom=0;right=0;overflow=hidden;pointerEvents=1;" parent="x1zw4nd6OEulIW4w1ceg-51" vertex="1">
          <mxGeometry x="113" width="114" height="40" as="geometry" />
        </mxCell>
        <mxCell id="x1zw4nd6OEulIW4w1ceg-54" value="40" style="shape=partialRectangle;html=1;whiteSpace=wrap;connectable=0;fillColor=none;top=0;left=0;bottom=0;right=0;overflow=hidden;pointerEvents=1;" parent="x1zw4nd6OEulIW4w1ceg-51" vertex="1">
          <mxGeometry x="227" width="113" height="40" as="geometry" />
        </mxCell>
        <mxCell id="x1zw4nd6OEulIW4w1ceg-55" value="" style="shape=flexArrow;endArrow=classic;html=1;endWidth=22;endSize=5.67;" parent="1" edge="1">
          <mxGeometry width="50" height="50" relative="1" as="geometry">
            <mxPoint x="1400" y="240" as="sourcePoint" />
            <mxPoint x="1400" y="310" as="targetPoint" />
          </mxGeometry>
        </mxCell>
        <mxCell id="x1zw4nd6OEulIW4w1ceg-60" value="问题：为什么非主键索引的叶子节点存放的数据是主键值？" style="text;html=1;align=center;verticalAlign=middle;resizable=0;points=[];autosize=1;strokeColor=none;" parent="1" vertex="1">
          <mxGeometry x="50" y="120" width="330" height="20" as="geometry" />
        </mxCell>
        <mxCell id="x1zw4nd6OEulIW4w1ceg-61" value="&lt;font style=&quot;font-size: 18px&quot;&gt;针对 name 列进行索引的建立&lt;/font&gt;" style="text;html=1;align=center;verticalAlign=middle;resizable=0;points=[];autosize=1;strokeColor=none;" parent="1" vertex="1">
          <mxGeometry x="1280" y="210" width="250" height="20" as="geometry" />
        </mxCell>
        <mxCell id="x1zw4nd6OEulIW4w1ceg-62" value="&lt;font style=&quot;font-size: 14px&quot;&gt;主键索引树&lt;/font&gt;" style="text;html=1;align=center;verticalAlign=middle;resizable=0;points=[];autosize=1;strokeColor=none;" parent="1" vertex="1">
          <mxGeometry x="115" y="210" width="90" height="20" as="geometry" />
        </mxCell>
        <mxCell id="i_mtiEkUjLZ6qvANidfd-1" value="&lt;font&gt;&lt;font style=&quot;font-size: 18px&quot;&gt;&lt;font&gt;&lt;font&gt;&lt;font&gt;&amp;nbsp; &amp;nbsp; &amp;nbsp; &amp;nbsp;该问题我们可以以反向的思路进行考虑：&lt;br&gt;&amp;nbsp; &amp;nbsp; &amp;nbsp; &amp;nbsp;如果我们不是仅仅在叶子节点中放ID，&lt;br&gt;而是把对应的记录中所有的内容全都放进去了，&lt;br&gt;那么此时我们可以直接拿到了数据。&lt;br&gt;&amp;nbsp; &amp;nbsp; &amp;nbsp; &amp;nbsp;而单一存放主键的话，需要进行第二次查找&lt;br&gt;&lt;br&gt;&lt;span style=&quot;text-align: center&quot;&gt;那么为什么我们还是要在非主键只放主键呢？原因如下：&lt;br&gt;&lt;/span&gt;&lt;/font&gt;- 因为不这样实现的话，会造成空间浪费，&lt;br&gt;&lt;/font&gt;- 而如果想要进行数据更改的话，一旦主键索引上的数据发生改变，&lt;br&gt;&lt;/font&gt;将所有数据都存放的普通索引中的数据内容此时也将发生改变，&lt;br&gt;因此只存放主键的话，对于数据的维护将更加方便&lt;br&gt;&lt;/font&gt;&lt;br&gt;&lt;/font&gt;" style="text;html=1;align=left;verticalAlign=middle;resizable=0;points=[];autosize=1;strokeColor=none;" parent="1" vertex="1">
          <mxGeometry x="90" y="710" width="550" height="200" as="geometry" />
        </mxCell>
        <mxCell id="i_mtiEkUjLZ6qvANidfd-3" value="&lt;font style=&quot;font-size: 18px&quot;&gt;辅助索引树&lt;/font&gt;" style="text;html=1;align=center;verticalAlign=middle;resizable=0;points=[];autosize=1;strokeColor=none;" parent="1" vertex="1">
          <mxGeometry x="865" y="180" width="110" height="20" as="geometry" />
        </mxCell>
        <mxCell id="u3Y5vEbEnL7WgV57h_9w-1" value="&lt;font style=&quot;font-size: 18px&quot;&gt;create index idx_name_age on query_test(name,age);&lt;/font&gt;" style="text;whiteSpace=wrap;html=1;" vertex="1" parent="1">
          <mxGeometry x="1210" y="750" width="460" height="30" as="geometry" />
        </mxCell>
        <mxCell id="u3Y5vEbEnL7WgV57h_9w-2" value="" style="shape=flexArrow;endArrow=classic;html=1;endWidth=22;endSize=5.67;" edge="1" parent="1">
          <mxGeometry width="50" height="50" relative="1" as="geometry">
            <mxPoint x="1409.41" y="743.5294117647059" as="sourcePoint" />
            <mxPoint x="1409.41" y="670" as="targetPoint" />
          </mxGeometry>
        </mxCell>
        <mxCell id="u3Y5vEbEnL7WgV57h_9w-3" value="&lt;font style=&quot;font-size: 18px&quot;&gt;创建联合索引&lt;/font&gt;" style="text;html=1;align=center;verticalAlign=middle;resizable=0;points=[];autosize=1;strokeColor=none;" vertex="1" parent="1">
          <mxGeometry x="1160" y="710" width="120" height="20" as="geometry" />
        </mxCell>
      </root>
    </mxGraphModel>
  </diagram>
</mxfile>
